<svg width="280" height="220" viewBox="0 0 280 220" fill="none" xmlns="http://www.w3.org/2000/svg">
<path fill-rule="evenodd" clip-rule="evenodd" d="M275.089 207.319V41.9414H4.85547V207.319C4.85547 211.027 7.89122 214.083 11.631 214.083H268.378C272.054 214.083 275.089 211.027 275.089 207.319Z" fill="#F5F5F5"/>
<mask id="mask0_398_1515" style="mask-type:luminance" maskUnits="userSpaceOnUse" x="0" y="34" width="280" height="187">
<path d="M0 34.8447H280V220H0V34.8447Z" fill="white"/>
</mask>
<g mask="url(#mask0_398_1515)">
<path fill-rule="evenodd" clip-rule="evenodd" d="M265.66 220H14.2738C6.46477 220 0.0703125 213.561 0.0703125 205.689V39.8618C0.0703125 37.7178 1.74967 36.0234 3.88115 36.0234H276.053C278.184 36.0234 279.928 37.7178 279.928 39.8618V205.624C279.928 213.561 273.534 220 265.66 220ZM7.692 43.7002V205.624C7.692 209.332 10.6567 212.258 14.2738 212.258H265.66C269.277 212.258 272.242 209.266 272.242 205.624V43.7002H7.692Z" fill="#64798A"/>
</g>
<mask id="mask1_398_1515" style="mask-type:luminance" maskUnits="userSpaceOnUse" x="138" y="8" width="142" height="37">
<path d="M138.043 8.15332H280V44.856H138.043V8.15332Z" fill="white"/>
</mask>
<g mask="url(#mask1_398_1515)">
<path fill-rule="evenodd" clip-rule="evenodd" d="M153.718 43.7023L138.546 14.6959C137.965 13.5229 137.965 12.0957 138.675 10.9227C139.386 9.82134 140.613 9.10449 141.969 9.10449H260.816C271.344 9.10449 279.928 17.6871 279.928 28.3552V43.7023H153.718Z" fill="#2A3E4D"/>
</g>
<mask id="mask2_398_1515" style="mask-type:luminance" maskUnits="userSpaceOnUse" x="0" y="0" width="163" height="45">
<path d="M0 0H162.846V44.8552H0V0Z" fill="white"/>
</mask>
<g mask="url(#mask2_398_1515)">
<path fill-rule="evenodd" clip-rule="evenodd" d="M0.0703125 43.7018V23.7994C0.0703125 10.6615 10.6567 0 23.6975 0H137.19C138.611 0 139.967 0.782017 140.613 2.07886L161.463 41.9422C161.721 42.4636 161.85 43.1153 161.85 43.7018H0.0703125Z" fill="#3A556A"/>
</g>
<path fill-rule="evenodd" clip-rule="evenodd" d="M33.2622 35.1108C27.0615 35.1108 22.0234 30.0407 22.0234 23.7976C22.0234 17.5545 27.0615 12.4844 33.2622 12.4844C39.4564 12.4844 44.4945 17.5545 44.4945 23.7976C44.4945 30.0407 39.4564 35.1108 33.2622 35.1108Z" fill="#2A3E4D"/>
<path fill-rule="evenodd" clip-rule="evenodd" d="M61.1425 35.1108C54.9482 35.1108 49.9102 30.0407 49.9102 23.7976C49.9102 17.5545 54.9482 12.4844 61.1425 12.4844C67.3431 12.4844 72.3747 17.5545 72.3747 23.7976C72.3747 30.0407 67.3431 35.1108 61.1425 35.1108Z" fill="#2A3E4D"/>
<path fill-rule="evenodd" clip-rule="evenodd" d="M89.0331 35.1108C82.8388 35.1108 77.8008 30.0407 77.8008 23.7976C77.8008 17.5545 82.8388 12.4844 89.0331 12.4844C95.2338 12.4844 100.265 17.5545 100.265 23.7976C100.265 30.0407 95.2338 35.1108 89.0331 35.1108Z" fill="#2A3E4D"/>
<path fill-rule="evenodd" clip-rule="evenodd" d="M33.2581 31.3452C29.1243 31.3452 25.7656 27.963 25.7656 23.7987C25.7656 19.641 29.1243 16.2588 33.2581 16.2588C37.3855 16.2588 40.7442 19.641 40.7442 23.7987C40.7442 27.963 37.3855 31.3452 33.2581 31.3452Z" fill="#FCD462"/>
<path fill-rule="evenodd" clip-rule="evenodd" d="M61.1423 31.3452C57.015 31.3452 53.6562 27.963 53.6562 23.7987C53.6562 19.641 57.015 16.2588 61.1423 16.2588C65.2761 16.2588 68.6348 19.641 68.6348 23.7987C68.6348 27.963 65.2761 31.3452 61.1423 31.3452Z" fill="#27A2DB"/>
<path fill-rule="evenodd" clip-rule="evenodd" d="M89.0329 31.3452C84.8991 31.3452 81.5469 27.963 81.5469 23.7987C81.5469 19.641 84.8991 16.2588 89.0329 16.2588C93.1667 16.2588 96.519 19.641 96.519 23.7987C96.519 27.963 93.1667 31.3452 89.0329 31.3452Z" fill="#44C4A1"/>
<path fill-rule="evenodd" clip-rule="evenodd" d="M232.479 134.089H47.4531C39.0628 134.089 32.2227 127.201 32.2227 118.742V74.0043C32.2227 65.552 39.0628 58.6572 47.4531 58.6572H232.479C240.869 58.6572 247.71 65.552 247.71 74.0043V118.742C247.71 127.201 240.869 134.089 232.479 134.089Z" fill="#EF5350"/>
<path fill-rule="evenodd" clip-rule="evenodd" d="M238.159 201.141H41.7778C39.6463 201.141 37.9023 199.446 37.9023 197.302C37.9023 195.158 39.6463 193.464 41.7778 193.464H238.159C240.29 193.464 242.034 195.158 242.034 197.302C242.034 199.446 240.29 201.141 238.159 201.141Z" fill="#3B566A"/>
<path fill-rule="evenodd" clip-rule="evenodd" d="M238.159 181.109H41.7778C39.6463 181.109 37.9023 179.355 37.9023 177.211C37.9023 175.126 39.6463 173.373 41.7778 173.373H238.159C240.29 173.373 242.034 175.126 242.034 177.211C242.034 179.355 240.29 181.109 238.159 181.109Z" fill="#3B566A"/>
<path fill-rule="evenodd" clip-rule="evenodd" d="M238.159 161.018H41.7778C39.6463 161.018 37.9023 159.324 37.9023 157.18C37.9023 155.036 39.6463 153.276 41.7778 153.276H238.159C240.29 153.276 242.034 155.036 242.034 157.18C242.034 159.324 240.29 161.018 238.159 161.018Z" fill="#3B566A"/>
<path fill-rule="evenodd" clip-rule="evenodd" d="M88.7734 100.209C86.642 100.209 84.898 98.5211 84.898 96.377C84.898 94.2265 86.642 92.5386 88.7734 92.5386C92.0676 92.5386 94.7158 89.8081 94.7158 86.491C94.7158 83.174 92.0676 80.4434 88.7734 80.4434H80.5769V96.377C80.5769 98.5211 78.833 100.274 76.7661 100.274C74.6346 100.274 72.8906 98.5211 72.8906 96.377V76.605C72.8906 74.461 74.6346 72.7666 76.7661 72.7666H88.7734C96.2659 72.7666 102.396 78.8794 102.396 86.491C102.396 94.031 96.2659 100.209 88.7734 100.209Z" fill="#F5F5F5"/>
<path fill-rule="evenodd" clip-rule="evenodd" d="M88.7734 120.046H76.7661C74.6346 120.046 72.8906 118.293 72.8906 116.142V96.3765C72.8906 94.2259 74.6346 92.5381 76.7661 92.5381H88.7734C96.2659 92.5381 102.396 98.716 102.396 106.256C102.396 113.802 96.2659 120.046 88.7734 120.046ZM80.5769 112.31H88.7734C92.0676 112.31 94.7158 109.573 94.7158 106.256C94.7158 102.945 92.0676 100.274 88.7734 100.274H80.5769V112.31Z" fill="#F5F5F5"/>
<path fill-rule="evenodd" clip-rule="evenodd" d="M129.64 120.046H110.398C108.338 120.046 106.594 118.293 106.594 116.143V76.605C106.594 74.461 108.338 72.7666 110.398 72.7666C112.53 72.7666 114.274 74.461 114.274 76.605V112.311H129.64C131.771 112.311 133.515 114.064 133.515 116.143C133.515 118.293 131.771 120.046 129.64 120.046Z" fill="#F5F5F5"/>
<path fill-rule="evenodd" clip-rule="evenodd" d="M153.979 120.046C145.008 120.046 137.645 112.63 137.645 103.591V89.1561C137.645 80.0521 145.008 72.7012 153.979 72.7012C162.951 72.7012 170.25 80.0521 170.25 89.1561V103.591C170.25 112.63 162.951 120.046 153.979 120.046ZM153.979 80.4431C149.2 80.4431 145.331 84.3467 145.331 89.1561V103.591C145.331 108.407 149.2 112.31 153.979 112.31C158.759 112.31 162.628 108.407 162.628 103.591V89.1561C162.628 84.3467 158.759 80.4431 153.979 80.4431Z" fill="#F5F5F5"/>
<path fill-rule="evenodd" clip-rule="evenodd" d="M190.776 120.046C181.74 120.046 174.441 112.63 174.441 103.591V89.1561C174.441 80.0521 181.74 72.7012 190.776 72.7012C194.393 72.7012 197.81 73.9394 200.717 76.1486C202.396 77.5171 202.655 79.9218 201.363 81.6097C200.071 83.2389 197.681 83.5647 196.008 82.2613C194.458 81.0948 192.649 80.4431 190.712 80.4431C185.997 80.4431 182.063 84.3467 182.063 89.1561V103.591C182.063 108.407 185.932 112.31 190.712 112.31C194.135 112.31 197.035 110.355 198.456 107.429H192.262C190.13 107.429 188.451 105.741 188.451 103.591C188.451 101.447 190.13 99.759 192.262 99.759H203.171C205.303 99.759 207.047 101.447 207.047 103.591C207.047 112.63 199.748 120.046 190.776 120.046Z" fill="#F5F5F5"/>
</svg>
