<svg width="280" height="180" viewBox="0 0 280 180" fill="none" xmlns="http://www.w3.org/2000/svg">
<path d="M210.865 125.594L223.148 137.079C223.399 137.314 223.462 137.548 223.462 137.841C223.462 138.14 223.336 138.375 223.148 138.609L210.865 150.089C210.615 150.323 210.364 150.382 210.05 150.382C209.731 150.382 209.48 150.265 209.229 150.089L196.952 138.609C196.696 138.375 196.633 138.14 196.633 137.841C196.633 137.548 196.758 137.314 196.952 137.079L209.229 125.594C209.48 125.359 209.731 125.301 210.05 125.301C210.364 125.301 210.615 125.418 210.865 125.594ZM222.829 137.314L210.552 125.829C210.426 125.711 210.238 125.594 209.987 125.594C209.793 125.594 209.605 125.653 209.417 125.829L197.14 137.314C197.015 137.431 196.889 137.607 196.889 137.841C196.889 138.017 196.952 138.199 197.14 138.375L209.417 149.854C209.543 149.972 209.731 150.089 209.987 150.089C210.175 150.089 210.364 150.03 210.552 149.854L222.829 138.375C222.954 138.257 223.085 138.076 223.085 137.841C223.085 137.665 223.017 137.49 222.829 137.314Z" fill="#FF3131"/>
<path d="M185.803 139.429L203.058 155.564C203.497 155.98 203.685 156.507 203.685 157.035C203.685 157.568 203.497 158.096 203.058 158.507L185.803 174.641C185.364 175.057 184.794 175.233 184.229 175.233C183.665 175.233 183.095 175.057 182.655 174.641L165.401 158.507C164.962 158.096 164.773 157.568 164.773 157.035C164.773 156.507 164.962 155.98 165.401 155.564L182.655 139.429C183.095 139.019 183.665 138.843 184.229 138.843C184.794 138.843 185.364 139.019 185.803 139.429ZM201.86 156.742L184.606 140.608C184.543 140.549 184.417 140.49 184.292 140.49C184.167 140.49 184.041 140.549 183.978 140.608L166.724 156.742C166.661 156.801 166.598 156.918 166.598 157.035C166.598 157.153 166.661 157.275 166.724 157.334L183.978 173.463C184.041 173.522 184.167 173.58 184.292 173.58C184.417 173.58 184.543 173.522 184.606 173.463L201.86 157.334C201.923 157.275 201.986 157.153 201.986 157.035C201.986 156.918 201.923 156.801 201.86 156.742Z" fill="#FF3131"/>
<path d="M159.986 103.631L175.103 117.766C175.354 118.001 175.479 118.353 175.479 118.705C175.479 119.062 175.354 119.355 175.103 119.648L159.986 133.778C159.735 134.012 159.359 134.135 158.983 134.135C158.601 134.135 158.287 134.012 157.973 133.778L142.863 119.648C142.606 119.414 142.48 119.062 142.48 118.705C142.48 118.353 142.606 118.059 142.863 117.766L157.973 103.631C158.224 103.397 158.601 103.279 158.983 103.279C159.359 103.279 159.673 103.397 159.986 103.631ZM174.846 118.001L159.735 103.866C159.547 103.69 159.296 103.573 159.045 103.573C158.789 103.573 158.538 103.69 158.35 103.866L143.239 118.001C143.051 118.177 142.925 118.411 142.925 118.646C142.925 118.88 143.051 119.12 143.239 119.296L158.35 133.426C158.538 133.602 158.789 133.719 159.045 133.719C159.296 133.719 159.547 133.602 159.735 133.426L174.846 119.296C175.04 119.12 175.165 118.88 175.165 118.646C175.165 118.411 175.04 118.177 174.846 118.001Z" fill="#FF3131"/>
<path d="M129.317 93.7994L151.419 114.466C151.864 114.876 152.052 115.41 152.052 115.879C152.052 116.412 151.864 116.94 151.419 117.292L129.317 137.958C128.878 138.374 128.314 138.55 127.806 138.55C127.242 138.55 126.677 138.374 126.295 137.958L104.194 117.292C103.755 116.881 103.566 116.353 103.566 115.879C103.566 115.351 103.755 114.818 104.194 114.466L126.295 93.7994C126.74 93.3888 127.305 93.2129 127.806 93.2129C128.377 93.2129 128.941 93.3888 129.317 93.7994ZM150.855 115.058L128.753 94.3859C128.502 94.1513 128.188 94.034 127.806 94.034C127.493 94.034 127.116 94.1513 126.866 94.3859L104.758 115.058C104.507 115.292 104.382 115.586 104.382 115.937C104.382 116.231 104.507 116.588 104.758 116.823L126.866 137.489C127.116 137.724 127.43 137.841 127.806 137.841C128.12 137.841 128.502 137.724 128.753 137.489L150.855 116.823C151.106 116.588 151.231 116.295 151.231 115.937C151.231 115.644 151.106 115.292 150.855 115.058Z" fill="#FF3131"/>
<path d="M192.419 93.5647L219.368 118.763C219.932 119.296 220.252 120 220.252 120.768C220.252 121.472 219.932 122.181 219.368 122.768L192.419 147.971C191.849 148.499 191.096 148.793 190.275 148.793C189.523 148.793 188.764 148.499 188.137 147.971L161.183 122.768C160.618 122.24 160.305 121.531 160.305 120.768C160.305 120.059 160.618 119.355 161.183 118.822L188.137 93.6233C188.702 93.0955 189.454 92.7969 190.275 92.7969C191.034 92.7969 191.786 93.0955 192.419 93.6233V93.5647ZM218.108 119.883L191.159 94.6844C190.903 94.4498 190.589 94.3271 190.275 94.3271C189.962 94.3271 189.648 94.4498 189.392 94.6844L162.443 119.883C162.192 120.118 162.067 120.416 162.067 120.709C162.067 121.003 162.192 121.296 162.443 121.531L189.392 146.734C189.648 146.969 189.962 147.086 190.275 147.086C190.589 147.086 190.903 146.969 191.159 146.734L218.108 121.531C218.359 121.296 218.484 121.003 218.484 120.709C218.484 120.416 218.359 120.118 218.108 119.883Z" fill="#FF3131"/>
<path d="M240.717 87.8544L257.966 103.983C258.285 104.282 258.411 104.634 258.411 104.986C258.411 105.338 258.285 105.754 257.966 105.988L240.717 122.123C240.397 122.416 240.021 122.533 239.645 122.533C239.268 122.533 238.824 122.416 238.573 122.123L221.318 105.988C221.004 105.695 220.879 105.338 220.879 104.986C220.879 104.634 221.004 104.223 221.318 103.983L238.573 87.8544C238.886 87.5558 239.268 87.4385 239.645 87.4385C240.021 87.4385 240.46 87.5558 240.717 87.8544ZM257.715 104.282L240.46 88.1476C240.209 87.913 239.958 87.8544 239.645 87.8544C239.331 87.8544 239.075 87.9717 238.824 88.1476L221.569 104.282C221.318 104.517 221.255 104.751 221.255 105.044C221.255 105.338 221.381 105.578 221.569 105.812L238.824 121.947C239.075 122.181 239.331 122.24 239.645 122.24C239.958 122.24 240.209 122.123 240.46 121.947L257.715 105.812C257.966 105.578 258.029 105.338 258.029 105.044C258.029 104.751 257.903 104.517 257.715 104.282Z" fill="#FF3131"/>
<mask id="mask0_398_1516" style="mask-type:luminance" maskUnits="userSpaceOnUse" x="210" y="104" width="70" height="68">
<path d="M210.031 104.516H279.997V171.399H210.031V104.516Z" fill="white"/>
</mask>
<g mask="url(#mask0_398_1516)">
<path d="M247.451 106.046L279.565 136.075C280.135 136.603 280.449 137.313 280.449 138.016C280.449 138.725 280.135 139.429 279.565 139.962L247.451 169.992C246.886 170.52 246.128 170.813 245.375 170.813C244.617 170.813 243.864 170.52 243.294 169.992L211.179 139.962C210.614 139.429 210.301 138.725 210.301 138.016C210.301 137.313 210.614 136.603 211.179 136.075L243.294 106.046C243.864 105.518 244.617 105.22 245.375 105.22C246.128 105.22 246.886 105.518 247.451 106.046ZM278.938 136.662L246.823 106.633C246.447 106.281 245.877 106.046 245.375 106.046C244.805 106.046 244.303 106.222 243.927 106.633L211.812 136.662C211.436 137.019 211.179 137.547 211.179 138.016C211.179 138.491 211.367 139.019 211.812 139.371L243.927 169.4C244.303 169.757 244.867 169.992 245.375 169.992C245.877 169.992 246.447 169.816 246.823 169.4L278.938 139.371C279.314 139.019 279.565 138.491 279.565 138.016C279.565 137.547 279.377 137.019 278.938 136.662Z" fill="#FF3131"/>
</g>
<path d="M123.151 120.827L145.504 141.728C145.886 142.08 146.074 142.555 146.074 143.024C146.074 143.493 145.886 143.968 145.504 144.32L123.151 165.221C122.775 165.578 122.267 165.754 121.765 165.754C121.264 165.754 120.756 165.578 120.38 165.221L98.0272 144.32C97.6509 143.968 97.457 143.493 97.457 143.024C97.457 142.555 97.6509 142.08 98.0272 141.728L120.38 120.827C120.756 120.475 121.264 120.294 121.765 120.294C122.267 120.294 122.775 120.475 123.151 120.827ZM145.19 141.963L122.837 121.062C122.524 120.768 122.142 120.651 121.703 120.651C121.326 120.651 120.887 120.768 120.568 121.062L98.2154 141.963C97.9018 142.261 97.7764 142.613 97.7764 142.965C97.7764 143.317 97.9018 143.733 98.2154 143.968L120.568 164.869C120.887 165.162 121.264 165.279 121.703 165.279C122.079 165.279 122.524 165.162 122.837 164.869L145.19 143.968C145.504 143.674 145.629 143.317 145.629 142.965C145.629 142.613 145.504 142.197 145.19 141.904V141.963Z" fill="#FF3131"/>
<path d="M131.585 75.4891L146.194 89.1494C146.445 89.384 146.571 89.7359 146.571 90.0292C146.571 90.3225 146.445 90.6797 146.194 90.9143L131.585 104.575C131.335 104.809 130.953 104.927 130.639 104.927C130.325 104.927 129.949 104.809 129.698 104.575L115.089 90.9143C114.832 90.6797 114.707 90.3225 114.707 90.0292C114.707 89.7359 114.832 89.384 115.089 89.1494L129.698 75.4891C129.949 75.2491 130.325 75.1318 130.639 75.1318C130.953 75.1318 131.335 75.2491 131.585 75.4891ZM145.944 89.4427L131.335 75.7823C131.146 75.6064 130.89 75.5477 130.639 75.5477C130.388 75.5477 130.137 75.6064 129.949 75.7823L115.34 89.4427C115.152 89.6186 115.089 89.8532 115.089 90.0878C115.089 90.3225 115.152 90.5624 115.34 90.7383L129.949 104.399C130.137 104.575 130.388 104.633 130.639 104.633C130.89 104.633 131.146 104.575 131.335 104.399L145.944 90.7383C146.132 90.5624 146.194 90.3225 146.194 90.0878C146.194 89.8532 146.132 89.6186 145.944 89.4427Z" fill="#FF3131"/>
<path d="M201.359 46.1048L211.56 55.6436C211.749 55.8195 211.874 56.0541 211.874 56.2941C211.874 56.5287 211.749 56.7633 211.56 56.9392L201.359 66.478C201.171 66.654 200.915 66.7713 200.664 66.7713C200.413 66.7713 200.162 66.654 199.974 66.478L189.772 56.9392C189.584 56.7633 189.453 56.5287 189.453 56.2941C189.453 56.0541 189.584 55.8195 189.772 55.6436L199.974 46.1048C200.162 45.9288 200.413 45.8115 200.664 45.8115C200.915 45.8115 201.171 45.9288 201.359 46.1048ZM211.304 55.9368L201.103 46.398C200.977 46.2807 200.852 46.2221 200.664 46.2221C200.538 46.2221 200.35 46.2807 200.225 46.398L190.023 55.9368C189.898 56.0541 189.835 56.1714 189.835 56.3527C189.835 56.47 189.898 56.646 190.023 56.7633L200.225 66.3021C200.35 66.4194 200.475 66.478 200.664 66.478C200.789 66.478 200.977 66.4194 201.103 66.3021L211.304 56.7633C211.435 56.646 211.498 56.5287 211.498 56.3527C211.498 56.2354 211.435 56.0541 211.304 55.9368Z" fill="#FF3131"/>
<path d="M190.972 68.3022L208.221 84.4366C208.603 84.7885 208.729 85.2044 208.729 85.6149C208.729 86.0255 208.541 86.5 208.221 86.7933L190.972 102.928C190.59 103.28 190.151 103.397 189.712 103.397C189.267 103.397 188.766 103.221 188.452 102.928L171.197 86.7933C170.821 86.4414 170.695 86.0255 170.695 85.6149C170.695 85.2044 170.883 84.7298 171.197 84.4366L188.452 68.3022C188.828 67.9503 189.267 67.833 189.712 67.833C190.151 67.833 190.653 68.009 190.972 68.3022ZM207.594 85.0284L190.339 68.8941C190.151 68.7181 189.9 68.6595 189.712 68.6595C189.455 68.6595 189.205 68.7181 189.079 68.8941L171.824 85.0284C171.636 85.2044 171.573 85.439 171.573 85.6149C171.573 85.8495 171.636 86.0255 171.824 86.2014L189.079 102.336C189.267 102.512 189.524 102.57 189.712 102.57C189.963 102.57 190.151 102.512 190.339 102.336L207.594 86.2014C207.782 86.0255 207.845 85.7909 207.845 85.6149C207.845 85.3803 207.782 85.2044 207.594 85.0284Z" fill="#FF3131"/>
<path d="M160.302 61.8292L184.918 84.8471C185.363 85.263 185.614 85.8495 185.614 86.4413C185.614 87.0278 185.363 87.5557 184.918 88.0302L160.302 111.053C159.857 111.464 159.23 111.699 158.597 111.699C157.97 111.699 157.405 111.464 156.898 111.053L132.276 88.0302C131.837 87.6197 131.586 87.0278 131.586 86.4413C131.586 85.8495 131.837 85.3216 132.276 84.8471L156.898 61.8292C157.337 61.4133 157.97 61.1787 158.597 61.1787C159.23 61.1787 159.795 61.4133 160.302 61.8292ZM184.291 85.4389L159.669 62.4157C159.356 62.1225 158.979 62.0052 158.597 62.0052C158.221 62.0052 157.844 62.1225 157.531 62.4157L132.909 85.4389C132.595 85.7322 132.464 86.0841 132.464 86.4413C132.464 86.7932 132.595 87.1451 132.909 87.4384L157.531 110.462C157.844 110.755 158.221 110.877 158.597 110.877C158.979 110.877 159.356 110.755 159.669 110.462L184.291 87.4384C184.605 87.1451 184.73 86.7932 184.73 86.4413C184.73 86.0841 184.605 85.7322 184.291 85.4389Z" fill="#FF3131"/>
<path d="M47.5848 127.891L72.0814 150.797C72.5205 151.208 72.7771 151.8 72.7771 152.386C72.7771 152.973 72.5205 153.506 72.0814 153.975L47.5848 176.881C47.1458 177.291 46.5185 177.526 45.8856 177.526C45.2583 177.526 44.6881 177.291 44.249 176.881L19.7525 153.975C19.3134 153.564 19.0625 152.973 19.0625 152.386C19.0625 151.8 19.3134 151.266 19.7525 150.797L44.249 127.891C44.6881 127.481 45.3211 127.246 45.8856 127.246C46.5185 127.246 47.083 127.481 47.5221 127.891H47.5848ZM71.4542 151.384L46.9576 128.478C46.644 128.185 46.2619 128.067 45.8856 128.067C45.5092 128.067 45.1329 128.185 44.8136 128.478L20.3227 151.384C20.0034 151.677 19.8779 152.034 19.8779 152.386C19.8779 152.738 20.0034 153.09 20.3227 153.388L44.8136 176.289C45.1329 176.588 45.5092 176.705 45.8856 176.705C46.2619 176.705 46.644 176.588 46.9576 176.289L71.4542 153.388C71.7678 153.09 71.8932 152.738 71.8932 152.386C71.8932 152.034 71.7678 151.677 71.4542 151.384Z" fill="#FF3131"/>
<mask id="mask1_398_1516" style="mask-type:luminance" maskUnits="userSpaceOnUse" x="49" y="116" width="68" height="64">
<path d="M49.457 116.801H116.606V180H49.457V116.801Z" fill="white"/>
</mask>
<g mask="url(#mask1_398_1516)">
<path d="M85.2423 118.822L115.532 147.145C116.097 147.673 116.348 148.324 116.348 149.027C116.348 149.678 116.097 150.382 115.532 150.915L85.2423 179.238C84.6778 179.766 83.9821 180 83.2295 180C82.5338 180 81.7811 179.766 81.2109 179.238L50.9266 150.915C50.3564 150.382 50.1055 149.736 50.1055 149.027C50.1055 148.382 50.3564 147.673 50.9266 147.145L81.2109 118.822C81.7811 118.294 82.4711 118.06 83.2295 118.06C83.9194 118.06 84.6778 118.294 85.2423 118.822ZM114.962 147.737L84.6778 119.414C84.2958 119.062 83.794 118.881 83.2922 118.881C82.7847 118.881 82.2829 119.062 81.9065 119.414L51.6165 147.737C51.2402 148.089 51.052 148.558 51.052 149.027C51.052 149.502 51.2402 149.971 51.6165 150.323L81.9065 178.646C82.2829 178.998 82.7847 179.179 83.2922 179.179C83.794 179.179 84.2958 178.998 84.6778 178.646L114.962 150.323C115.344 149.971 115.532 149.502 115.532 149.027C115.532 148.558 115.344 148.089 114.962 147.737Z" fill="#FF3131"/>
</g>
<path d="M214.648 94.2102L227.175 105.93C227.426 106.164 227.495 106.399 227.495 106.692C227.495 106.991 227.363 107.284 227.175 107.46L214.648 119.18C214.397 119.414 214.14 119.473 213.826 119.473C213.513 119.473 213.199 119.356 213.011 119.18L200.478 107.46C200.227 107.225 200.164 106.991 200.164 106.692C200.164 106.399 200.29 106.106 200.478 105.93L213.011 94.2102C213.262 93.9756 213.513 93.917 213.826 93.917C214.14 93.917 214.459 94.0343 214.648 94.2102ZM226.924 106.223L214.397 94.5088C214.266 94.3862 214.015 94.2689 213.826 94.2689C213.638 94.2689 213.45 94.3275 213.262 94.5088L200.729 106.223C200.603 106.34 200.478 106.575 200.478 106.756C200.478 106.932 200.54 107.108 200.729 107.284L213.262 118.998C213.387 119.121 213.638 119.238 213.826 119.238C214.015 119.238 214.203 119.18 214.397 118.998L226.924 107.284C227.05 107.167 227.175 106.932 227.175 106.756C227.175 106.575 227.113 106.399 226.924 106.223Z" fill="#FF3131"/>
<path d="M154.825 125.359L178.94 147.913C179.385 148.324 179.636 148.91 179.636 149.443C179.636 149.971 179.385 150.563 178.94 150.974L154.825 173.522C154.381 173.938 153.753 174.173 153.189 174.173C152.619 174.173 151.991 173.938 151.552 173.522L127.432 150.974C126.993 150.563 126.742 149.971 126.742 149.443C126.742 148.91 126.993 148.324 127.432 147.913L151.552 125.359C151.991 124.948 152.619 124.714 153.189 124.714C153.753 124.714 154.381 124.948 154.825 125.359ZM178.313 148.5L154.192 125.951C153.942 125.711 153.565 125.535 153.189 125.535C152.807 125.535 152.431 125.652 152.18 125.951L128.059 148.5C127.808 148.734 127.62 149.091 127.62 149.443C127.62 149.795 127.746 150.147 128.059 150.382L152.18 172.936C152.431 173.17 152.807 173.346 153.189 173.346C153.565 173.346 153.942 173.229 154.192 172.936L178.313 150.382C178.564 150.147 178.752 149.795 178.752 149.443C178.752 149.091 178.626 148.734 178.313 148.5Z" fill="#FF3131"/>
<path d="M237.883 51.8748L261.12 73.6023C261.621 74.0768 261.935 74.722 261.935 75.3725C261.935 76.0177 261.684 76.6628 261.12 77.1374L237.883 98.8649C237.376 99.3341 236.686 99.6274 235.99 99.6274C235.3 99.6274 234.604 99.3928 234.103 98.8649L210.866 77.1374C210.364 76.6628 210.051 76.0177 210.051 75.3725C210.051 74.722 210.302 74.0768 210.866 73.6023L234.103 51.8748C234.604 51.4056 235.3 51.1123 235.99 51.1123C236.686 51.1123 237.376 51.3469 237.883 51.8748ZM259.859 74.7807L236.623 53.0531C236.435 52.8772 236.178 52.8185 235.927 52.8185C235.676 52.8185 235.425 52.8772 235.237 53.0531L212.001 74.7807C211.813 74.9566 211.75 75.1912 211.75 75.4312C211.75 75.6658 211.813 75.9004 212.001 76.0763L235.237 97.8039C235.425 97.9798 235.676 98.0385 235.927 98.0385C236.178 98.0385 236.435 97.9798 236.623 97.8039L259.859 76.0763C260.048 75.9004 260.11 75.6658 260.11 75.4312C260.11 75.1912 260.048 74.9566 259.859 74.7807Z" fill="#FF3131"/>
<path d="M83.2893 99.3922L100.544 115.527C100.983 115.937 101.171 116.47 101.171 116.998C101.171 117.526 100.983 118.059 100.544 118.47L83.2893 134.604C82.8445 135.015 82.28 135.191 81.7155 135.191C81.1452 135.191 80.5807 135.015 80.1417 134.604L62.8868 118.47C62.4478 118.059 62.2539 117.526 62.2539 116.998C62.2539 116.47 62.4478 115.937 62.8868 115.527L80.1417 99.3922C80.5807 98.9816 81.1452 98.8057 81.7155 98.8057C82.28 98.8057 82.8445 98.9816 83.2893 99.3922ZM99.3466 116.705L82.0918 100.571C82.0291 100.512 81.9036 100.453 81.7782 100.453C81.6527 100.453 81.5273 100.512 81.4646 100.571L64.2098 116.705C64.147 116.764 64.0843 116.881 64.0843 116.998C64.0843 117.115 64.147 117.233 64.2098 117.291L81.4646 133.426C81.5273 133.484 81.6527 133.543 81.7782 133.543C81.9036 133.543 82.0291 133.484 82.0918 133.426L99.3466 117.291C99.4093 117.233 99.4721 117.115 99.4721 116.998C99.4721 116.881 99.4093 116.764 99.3466 116.705Z" fill="#FF3131"/>
<path d="M98.9707 82.202L105.203 88.0297C105.454 88.2643 105.58 88.6163 105.58 88.9095C105.58 89.2667 105.454 89.56 105.203 89.7946L98.9707 95.6224C98.7141 95.8623 98.3378 95.9796 98.0241 95.9796C97.7105 95.9796 97.3285 95.8623 97.0776 95.6224L90.8451 89.7946C90.5942 89.56 90.4688 89.2081 90.4688 88.9095C90.4688 88.5576 90.5942 88.2643 90.8451 88.0297L97.0776 82.202C97.3285 81.962 97.7105 81.8447 98.0241 81.8447C98.3378 81.8447 98.7141 81.962 98.9707 82.202ZM103.692 88.9095L98.0241 83.6149L92.3562 88.9095L98.0241 94.2094L103.692 88.9095Z" fill="#FF3131"/>
<mask id="mask2_398_1516" style="mask-type:luminance" maskUnits="userSpaceOnUse" x="0" y="141" width="13" height="13">
<path d="M0 141.37H12.9668V153.655H0V141.37Z" fill="white"/>
</mask>
<g mask="url(#mask2_398_1516)">
<path d="M6.27936 142.138L11.4455 146.969C11.571 147.086 11.6337 147.203 11.6337 147.379C11.6337 147.496 11.571 147.672 11.4455 147.795L6.27936 152.62C6.15391 152.738 6.02846 152.796 5.84029 152.796C5.71484 152.796 5.52667 152.738 5.39552 152.62L0.235046 147.795C0.109597 147.672 0.046875 147.555 0.046875 147.379C0.046875 147.262 0.109597 147.086 0.235046 146.969L5.39552 142.138C5.52667 142.021 5.65212 141.962 5.84029 141.962C5.96574 141.962 6.15391 142.021 6.27936 142.138ZM11.1262 147.203L5.96574 142.378C5.90302 142.319 5.90302 142.319 5.84029 142.319C5.77757 142.319 5.71484 142.319 5.71484 142.378L0.548667 147.203C0.485943 147.262 0.485942 147.262 0.485942 147.32C0.485942 147.379 0.485943 147.438 0.548667 147.438L5.71484 152.269C5.77757 152.327 5.77757 152.327 5.84029 152.327C5.90302 152.327 5.96574 152.327 5.96574 152.269L11.1262 147.438C11.1889 147.379 11.1889 147.379 11.1889 147.32C11.1889 147.262 11.1889 147.203 11.1262 147.203Z" fill="#FF3131"/>
</g>
<path d="M39.7159 99.6274L47.2086 106.633C47.5222 106.932 47.6477 107.225 47.6477 107.577C47.6477 107.929 47.5222 108.286 47.2086 108.521L39.7159 115.527C39.4023 115.82 39.0887 115.938 38.7066 115.938C38.3303 115.938 37.954 115.82 37.7031 115.527L30.2047 108.521C29.8911 108.228 29.7656 107.929 29.7656 107.577C29.7656 107.225 29.8911 106.873 30.2047 106.633L37.7031 99.6274C38.0167 99.3341 38.3303 99.2168 38.7066 99.2168C39.0887 99.2168 39.465 99.3341 39.7159 99.6274ZM45.7602 107.577L38.6439 100.923L31.5276 107.577L38.6439 114.231L45.7602 107.577Z" fill="#FF3131"/>
<path d="M161.753 42.1596L177.679 57.0569C177.936 57.2915 178.124 57.6488 178.124 58.0007C178.124 58.3526 177.998 58.7045 177.679 58.9444L161.753 73.8365C161.496 74.0764 161.12 74.2524 160.744 74.2524C160.367 74.2524 159.985 74.1351 159.734 73.8365L143.802 58.9444C143.551 58.7045 143.363 58.3526 143.363 58.0007C143.363 57.6488 143.489 57.2915 143.802 57.0569L159.734 42.1596C159.985 41.925 160.367 41.749 160.744 41.749C161.12 41.749 161.496 41.8663 161.753 42.1596ZM177.365 57.2915L161.433 42.3942C161.245 42.2182 160.932 42.1009 160.681 42.1009C160.43 42.1009 160.111 42.2182 159.922 42.3942L143.991 57.2915C143.802 57.4675 143.677 57.7661 143.677 58.0007C143.677 58.2353 143.802 58.5285 143.991 58.7045L159.922 73.6019C160.111 73.7778 160.43 73.8951 160.681 73.8951C160.932 73.8951 161.245 73.7778 161.433 73.6019L177.365 58.7045C177.554 58.5285 177.679 58.2353 177.679 58.0007C177.679 57.7661 177.554 57.4675 177.365 57.2915Z" fill="#FF3131"/>
<mask id="mask3_398_1516" style="mask-type:luminance" maskUnits="userSpaceOnUse" x="201" y="0" width="79" height="74">
<path d="M201.273 0H279.998V73.1218H201.273V0Z" fill="white"/>
</mask>
<g mask="url(#mask3_398_1516)">
<path d="M242.728 0.885097L278.492 34.3268C279.125 34.9187 279.439 35.6812 279.439 36.4489C279.439 37.2167 279.125 37.9792 278.492 38.571L242.728 72.0128C242.101 72.6046 241.28 72.8979 240.459 72.8979C239.643 72.8979 238.822 72.6046 238.195 72.0128L202.425 38.571C201.798 37.9792 201.484 37.2167 201.484 36.4489C201.484 35.6812 201.798 34.9187 202.425 34.3268L238.195 0.885097C238.822 0.298588 239.643 0 240.459 0C241.28 0 242.101 0.298588 242.728 0.885097ZM277.865 34.86L242.101 1.41296C241.656 1.0024 241.029 0.767795 240.396 0.767795C239.769 0.767795 239.204 1.0024 238.697 1.41296L202.933 34.86C202.488 35.2706 202.237 35.8624 202.237 36.4489C202.237 37.0355 202.488 37.5686 202.933 38.0379L238.697 71.4849C239.142 71.8955 239.769 72.1301 240.396 72.1301C241.029 72.1301 241.594 71.8955 242.101 71.4849L277.865 38.0379C278.304 37.6273 278.555 37.0355 278.555 36.4489C278.555 35.8624 278.304 35.3292 277.865 34.86Z" fill="#FF3131"/>
</g>
<path d="M183.791 19.6697L190.024 25.4975C190.274 25.7321 190.4 26.084 190.4 26.3826C190.4 26.6759 190.274 27.0278 190.024 27.2624L183.791 33.0955C183.534 33.3301 183.158 33.4474 182.844 33.4474C182.468 33.4474 182.149 33.3301 181.898 33.0955L175.665 27.2624C175.415 27.0278 175.289 26.6759 175.289 26.3826C175.289 26.084 175.415 25.7321 175.665 25.4975L181.898 19.6697C182.149 19.4351 182.531 19.3125 182.844 19.3125C183.221 19.3125 183.534 19.4351 183.791 19.6697ZM188.512 26.3826L182.844 21.0827L177.176 26.3826L182.844 31.6825L188.512 26.3826Z" fill="#FF3131"/>
<path d="M125.858 46.756L130.14 50.7602C130.265 50.8775 130.265 50.9948 130.265 51.1121C130.265 51.2294 130.203 51.3468 130.14 51.4641L125.858 55.4683C125.732 55.5856 125.607 55.5856 125.481 55.5856C125.356 55.5856 125.23 55.527 125.099 55.4683L120.817 51.4641C120.691 51.3468 120.691 51.2294 120.691 51.1121C120.691 50.9948 120.754 50.8775 120.817 50.7602L125.099 46.756C125.23 46.6387 125.356 46.6387 125.481 46.6387C125.607 46.6387 125.732 46.6973 125.858 46.756ZM129.889 50.9948L125.607 46.9906C125.607 46.9906 125.544 46.9319 125.481 46.9319C125.419 46.9319 125.419 46.9319 125.356 46.9906L121.073 50.9948C121.073 50.9948 121.011 51.0535 121.011 51.1121C121.011 51.1708 121.011 51.1708 121.073 51.2294L125.356 55.2337C125.356 55.2337 125.419 55.2924 125.481 55.2924C125.544 55.2924 125.544 55.2924 125.607 55.2337L129.889 51.2294C129.889 51.2294 129.952 51.1708 129.952 51.1121C129.952 51.0535 129.952 51.0535 129.889 50.9948Z" fill="#FF3131"/>
<path d="M221.126 6.01005L231.076 15.3142C231.265 15.4902 231.39 15.7248 231.39 15.9594C231.39 16.194 231.265 16.4286 231.076 16.6099L221.126 25.9087C220.938 26.0847 220.687 26.2073 220.436 26.2073C220.185 26.2073 219.929 26.0847 219.74 25.9087L209.79 16.6099C209.602 16.4286 209.477 16.194 209.477 15.9594C209.477 15.7248 209.602 15.4902 209.79 15.3142L219.74 6.01005C219.929 5.8341 220.185 5.7168 220.436 5.7168C220.687 5.7168 220.938 5.8341 221.126 6.01005ZM230.826 15.6075L220.875 6.30331C220.75 6.18601 220.624 6.12735 220.436 6.12735C220.311 6.12735 220.117 6.18601 219.991 6.30331L210.047 15.6075C209.921 15.7248 209.853 15.8421 209.853 16.0181C209.853 16.1354 209.921 16.3113 210.047 16.4286L219.991 25.7328C220.117 25.8501 220.248 25.9087 220.436 25.9087C220.562 25.9087 220.75 25.8501 220.875 25.7328L230.826 16.4286C230.951 16.3113 231.014 16.194 231.014 16.0181C231.014 15.9007 230.951 15.7248 230.826 15.6075Z" fill="#FF3131"/>
</svg>
