<svg width="42" height="42" viewBox="0 0 42 42" fill="none" xmlns="http://www.w3.org/2000/svg">
<path d="M36.0324 39.375H9.30991C8.65359 39.3643 8.01492 39.1607 7.47357 38.7895C6.93223 38.4182 6.51218 37.8958 6.26582 37.2874C6.01947 36.6789 5.95771 36.0114 6.08826 35.3681C6.2188 34.7248 6.53587 34.1342 6.99991 33.67C7.30893 33.358 7.67698 33.1106 8.0826 32.9424C8.48822 32.7741 8.92328 32.6883 9.36241 32.69H36.0324" stroke="black" stroke-width="2" stroke-miterlimit="10"/>
<path d="M34.3701 32.6899V39.3749" stroke="black" stroke-width="2" stroke-miterlimit="10"/>
<path d="M36.0328 2.625V32.69H9.31027C8.42379 32.69 7.57361 33.0422 6.94677 33.669C6.31993 34.2958 5.96777 35.146 5.96777 36.0325V5.9675C5.97237 5.08243 6.326 4.23492 6.95185 3.60908C7.5777 2.98323 8.42521 2.6296 9.31027 2.625H36.0328Z" stroke="black" stroke-width="2" stroke-miterlimit="10"/>
<path d="M21.0004 24.3425L17.6229 22.68L14.3154 24.3425V2.625H21.0004V24.3425Z" stroke="black" stroke-width="2" stroke-miterlimit="10"/>
</svg>
