<svg width="42" height="42" viewBox="0 0 42 42" fill="none" xmlns="http://www.w3.org/2000/svg">
<path d="M2.625 5.96729V29.3473H15.995C16.6537 29.3473 17.306 29.4773 17.9144 29.7299C18.5228 29.9826 19.0753 30.3528 19.5403 30.8194C20.0053 31.286 20.3736 31.8398 20.6241 32.4491C20.8745 33.0583 21.0023 33.711 21 34.3698V10.9723C21 10.315 20.8705 9.66419 20.619 9.05695C20.3675 8.44972 19.9988 7.89797 19.5341 7.43322C19.0693 6.96846 18.5176 6.59979 17.9103 6.34827C17.3031 6.09674 16.6523 5.96729 15.995 5.96729H2.625Z" stroke="black" stroke-width="2" stroke-miterlimit="10"/>
<path d="M39.375 5.96729V29.3473H26.005C25.3463 29.3473 24.694 29.4773 24.0856 29.7299C23.4773 29.9826 22.9247 30.3528 22.4598 30.8194C21.9948 31.286 21.6265 31.8398 21.376 32.4491C21.1255 33.0583 20.9977 33.711 21 34.3698V10.9723C21 9.64488 21.5273 8.37183 22.466 7.43322C23.4046 6.4946 24.6776 5.96729 26.005 5.96729H39.375Z" stroke="black" stroke-width="2" stroke-miterlimit="10"/>
<path d="M39.375 29.3477V36.0327H26.005H15.995H2.625V29.3477" stroke="black" stroke-width="2" stroke-miterlimit="10"/>
</svg>
