<svg width="42" height="42" viewBox="0 0 42 42" fill="none" xmlns="http://www.w3.org/2000/svg">
<path d="M20.9997 39.3749C22.8457 39.3749 24.3422 37.8785 24.3422 36.0324C24.3422 34.1864 22.8457 32.6899 20.9997 32.6899C19.1537 32.6899 17.6572 34.1864 17.6572 36.0324C17.6572 37.8785 19.1537 39.3749 20.9997 39.3749Z" stroke="black" stroke-width="2" stroke-miterlimit="10"/>
<path d="M32.6902 24.3427C34.5362 24.3427 36.0327 22.8462 36.0327 21.0002C36.0327 19.1542 34.5362 17.6577 32.6902 17.6577C30.8441 17.6577 29.3477 19.1542 29.3477 21.0002C29.3477 22.8462 30.8441 24.3427 32.6902 24.3427Z" stroke="black" stroke-width="2" stroke-miterlimit="10"/>
<path d="M9.31027 9.31C11.1563 9.31 12.6528 7.81351 12.6528 5.9675C12.6528 4.12149 11.1563 2.625 9.31027 2.625C7.46426 2.625 5.96777 4.12149 5.96777 5.9675C5.96777 7.81351 7.46426 9.31 9.31027 9.31Z" stroke="black" stroke-width="2" stroke-miterlimit="10"/>
<path d="M41.0373 5.96729H12.6523" stroke="black" stroke-width="2" stroke-miterlimit="10"/>
<path d="M5.96789 5.96729H0.962891" stroke="black" stroke-width="2" stroke-miterlimit="10"/>
<path d="M41.0372 21H36.0322" stroke="black" stroke-width="2" stroke-miterlimit="10"/>
<path d="M29.3479 21H0.962891" stroke="black" stroke-width="2" stroke-miterlimit="10"/>
<path d="M41.0378 36.0327H24.3428" stroke="black" stroke-width="2" stroke-miterlimit="10"/>
<path d="M17.6579 36.0327H0.962891" stroke="black" stroke-width="2" stroke-miterlimit="10"/>
</svg>
